<svg xmlns="http://www.w3.org/2000/svg" viewBox="0 0 512 512">
  <defs>
    <linearGradient id="calcGrad" x1="0%" y1="0%" x2="100%" y2="100%">
      <stop offset="0%" stop-color="#2C323E" /> <stop offset="100%" stop-color="#0D0F12" /> </linearGradient>

    <linearGradient id="orangeGrad" x1="0%" y1="0%" x2="100%" y2="100%">
      <stop offset="0%" stop-color="#FF9F0A" /> <stop offset="100%" stop-color="#FF6300" /> </linearGradient>

    <filter id="orangeGlow" x="-50%" y="-50%" width="200%" height="200%">
      <feDropShadow dx="0" dy="6" stdDeviation="8" flood-color="#FF6300" flood-opacity="0.35"/>
    </filter>

    <filter id="softShadow" x="-20%" y="-20%" width="140%" height="140%">
      <feDropShadow dx="0" dy="4" stdDeviation="6" flood-color="#000000" flood-opacity="0.25"/>
    </filter>
  </defs>
  
  <rect width="512" height="512" rx="115" fill="url(#calcGrad)" />

  <text x="410" y="90" font-family="'Helvetica Neue', Helvetica, Arial, sans-serif" font-size="72" font-weight="300" fill="#FFFFFF" text-anchor="end" letter-spacing="-2">
    8,024
  </text>

  <g filter="url(#softShadow)" font-family="'Helvetica Neue', Helvetica, Arial, sans-serif" font-size="34" font-weight="500" fill="#FFFFFF" text-anchor="middle" dominant-baseline="central">

    <g opacity="0.9">
      <circle cx="124" cy="140" r="34" fill="#FFFFFF" opacity="0.35" />
      <text x="124" y="142" font-size="28">AC</text>

      <circle cx="212" cy="140" r="34" fill="#FFFFFF" opacity="0.35" />
      <g fill="none" stroke="#FFFFFF" stroke-width="4" stroke-linecap="round">
        <path d="M 202 135 L 222 135" />
        <path d="M 212 125 L 212 145" />
        <path d="M 202 152 L 222 152" />
      </g>

      <circle cx="300" cy="140" r="34" fill="#FFFFFF" opacity="0.35" />
      <g fill="#FFFFFF" stroke="#FFFFFF" stroke-width="4" stroke-linecap="round">
        <path d="M 288 152 L 312 128" />
        <circle cx="292" cy="132" r="3" stroke="none" />
        <circle cx="308" cy="148" r="3" stroke="none" />
      </g>
    </g>

    <g>
      <circle cx="124" cy="222" r="34" fill="#FFFFFF" opacity="0.15" />
      <text x="124" y="224">7</text>
      
      <circle cx="212" cy="222" r="34" fill="#FFFFFF" opacity="0.15" />
      <text x="212" y="224">8</text>
      
      <circle cx="300" cy="222" r="34" fill="#FFFFFF" opacity="0.15" />
      <text x="300" y="224">9</text>

      <circle cx="124" cy="304" r="34" fill="#FFFFFF" opacity="0.15" />
      <text x="124" y="306">4</text>
      
      <circle cx="212" cy="304" r="34" fill="#FFFFFF" opacity="0.15" />
      <text x="212" y="306">5</text>
      
      <circle cx="300" cy="304" r="34" fill="#FFFFFF" opacity="0.15" />
      <text x="300" y="306">6</text>

      <circle cx="124" cy="386" r="34" fill="#FFFFFF" opacity="0.15" />
      <text x="124" y="388">1</text>
      
      <circle cx="212" cy="386" r="34" fill="#FFFFFF" opacity="0.15" />
      <text x="212" y="388">2</text>
      
      <circle cx="300" cy="386" r="34" fill="#FFFFFF" opacity="0.15" />
      <text x="300" y="388">3</text>

      <rect x="90" y="434" width="156" height="68" rx="34" fill="#FFFFFF" opacity="0.15" />
      <text x="124" y="470">0</text>
      
      <circle cx="300" cy="468" r="34" fill="#FFFFFF" opacity="0.15" />
      <circle cx="300" cy="468" r="4" fill="#FFFFFF" />
    </g>

    <g filter="url(#orangeGlow)">
      
      <circle cx="388" cy="140" r="34" fill="url(#orangeGrad)" />
      <g fill="#FFFFFF" stroke="#FFFFFF" stroke-width="4" stroke-linecap="round">
        <path d="M 374 140 L 402 140" />
        <circle cx="388" cy="128" r="3" stroke="none" />
        <circle cx="388" cy="152" r="3" stroke="none" />
      </g>

      <circle cx="388" cy="222" r="34" fill="url(#orangeGrad)" />
      <g fill="none" stroke="#FFFFFF" stroke-width="5" stroke-linecap="round">
        <path d="M 376 210 L 400 234" />
        <path d="M 400 210 L 376 234" />
      </g>

      <circle cx="388" cy="304" r="34" fill="url(#orangeGrad)" />
      <path d="M 374 304 L 402 304" fill="none" stroke="#FFFFFF" stroke-width="5" stroke-linecap="round" />

      <circle cx="388" cy="386" r="34" fill="url(#orangeGrad)" />
      <g fill="none" stroke="#FFFFFF" stroke-width="5" stroke-linecap="round">
        <path d="M 374 386 L 402 386" />
        <path d="M 388 372 L 388 400" />
      </g>

      <circle cx="388" cy="468" r="34" fill="url(#orangeGrad)" />
      <g fill="none" stroke="#FFFFFF" stroke-width="5" stroke-linecap="round">
        <path d="M 374 462 L 402 462" />
        <path d="M 374 474 L 402 474" />
      </g>

    </g>

  </g>
</svg>