<svg class="app-icon-map" xmlns="http://www.w3.org/2000/svg" viewBox="0 0 120 120">
  <defs>
    <linearGradient id="mapBg" x1="0%" y1="0%" x2="100%" y2="100%">
      <stop offset="0%" stop-color="#10b981" /> 
      <stop offset="100%" stop-color="#0284c7" />
    </linearGradient>

    <filter id="mapShadow" x="-20%" y="-20%" width="140%" height="140%">
      <feDropShadow dx="0" dy="6" stdDeviation="5" flood-color="#0369a1" flood-opacity="0.4" />
    </filter>
  </defs>

  <rect x="8" y="8" width="104" height="104" rx="26" fill="url(#mapBg)" filter="url(#mapShadow)" />

  <g stroke="#ffffff" stroke-width="1.5" stroke-opacity="0.15" fill="none">
    <path d="M 8 40 Q 30 50 60 30 T 112 40" />
    <path d="M 8 85 Q 40 70 70 95 T 112 85" />
    <circle cx="60" cy="60" r="42" stroke-dasharray="2 6" />
    <circle cx="60" cy="60" r="28" stroke-dasharray="2 6" />
  </g>

  <g class="map-paper" fill="#ffffff" stroke="#ffffff" stroke-linejoin="round">
    <path d="M 28 46 L 48 38 L 72 46 L 92 38 V 74 L 72 82 L 48 74 L 28 82 Z" fill-opacity="0.95" stroke-width="2"/>
    <line x1="48" y1="38" x2="48" y2="74" stroke="#cbd5e1" stroke-width="2" />
    <line x1="72" y1="46" x2="72" y2="82" stroke="#cbd5e1" stroke-width="2" />
  </g>

  <path class="map-route" d="M 36 66 L 48 54 L 65 62 L 65 45" fill="none" stroke="#0284c7" stroke-width="2.5" stroke-linecap="round" stroke-linejoin="round" stroke-dasharray="4 4"/>

  <circle class="radar-pulse" cx="65" cy="45" r="1" fill="none" stroke="#ef4444" stroke-width="2" opacity="0" />

  <g class="location-pin" transform="translate(65, 45)">
    <path d="M 0 0 C 7 -8 10 -13 10 -18 C 10 -24 5 -28 0 -28 C -5 -28 -10 -24 -10 -18 C -10 -13 -7 -8 0 0 Z" fill="#ef4444" stroke="#ffffff" stroke-width="1.5" />
    <circle cx="0" cy="-18" r="3" fill="#ffffff" />
  </g>
</svg>