<svg xmlns="http://www.w3.org/2000/svg" viewBox="0 0 512 512">
  <defs>
    <linearGradient id="purpleGrad" x1="0%" y1="0%" x2="100%" y2="100%">
      <stop offset="0%" stop-color="#4A00E0" /> <stop offset="100%" stop-color="#8E2DE2" /> </linearGradient>

    <linearGradient id="massiveGoldFade" x1="0%" y1="100%" x2="60%" y2="20%">
      <stop offset="0%" stop-color="#FFD700" stop-opacity="0" />
      <stop offset="100%" stop-color="#FFD700" stop-opacity="0.65" />
    </linearGradient>

    <filter id="softShadow" x="-20%" y="-20%" width="140%" height="140%">
      <feDropShadow dx="0" dy="6" stdDeviation="8" flood-color="#000000" flood-opacity="0.25"/>
    </filter>
  </defs>
  
  <rect width="512" height="512" rx="115" fill="url(#purpleGrad)" />
  
  <g fill="#FFFFFF" opacity="0.4">
    <path d="M 256 20 Q 262 40 282 46 Q 262 52 256 72 Q 250 52 230 46 Q 250 40 256 20 Z" />
    <path d="M 420 380 Q 424 390 434 394 Q 424 398 420 408 Q 416 398 406 394 Q 416 390 420 380 Z" opacity="0.6"/>
    <path d="M 440 220 Q 445 235 460 240 Q 445 245 440 260 Q 435 245 420 240 Q 435 235 440 220 Z" />
    
    <circle cx="300" cy="30" r="4" />
    <circle cx="410" cy="50" r="3" />
    <circle cx="480" cy="180" r="5" opacity="0.2" />
    <circle cx="460" cy="140" r="4" />
    <circle cx="380" cy="450" r="5" opacity="0.3" />
  </g>

  <g filter="url(#softShadow)">

    <g>
      <path d="M -50 560 Q 0 320 40 120 Q 160 150 250 250 Q 80 400 -50 560 Z" 
            fill="url(#massiveGoldFade)" 
            stroke="url(#massiveGoldFade)" 
            stroke-width="24" 
            stroke-linejoin="round"/>
      
      <path d="M 140 180 C 180 60, 380 60, 340 180 C 310 270, 220 230, 250 160" 
            fill="none" 
            stroke="#FFD700" 
            stroke-width="12" 
            stroke-linecap="round" 
            opacity="0.5" />
      
      <path d="M 80 140 Q 200 20 350 80" 
            fill="none" stroke="#FFD700" stroke-width="10" stroke-linecap="round" opacity="0.4" />
      <path d="M 220 220 Q 380 150 460 260" 
            fill="none" stroke="#FFD700" stroke-width="10" stroke-linecap="round" opacity="0.4" />
    </g>

    <g opacity="0.6">
      <rect x="350" y="65" width="90" height="60" rx="30" fill="#FFFFFF" />
      <circle cx="375" cy="95" r="8" fill="#8E2DE2" /> 
      <circle cx="415" cy="87" r="6" fill="#8E2DE2" />
      <circle cx="405" cy="103" r="6" fill="#8E2DE2" />
    </g>

    <circle cx="140" cy="220" r="45" fill="#FFFFFF" opacity="0.75" />
    <rect x="60" y="280" width="160" height="150" rx="75" fill="#FFFFFF" opacity="0.75" />
    
    <circle cx="372" cy="220" r="45" fill="#FFFFFF" opacity="0.75" />
    <rect x="292" y="280" width="160" height="150" rx="75" fill="#FFFFFF" opacity="0.75" />
    
    <circle cx="256" cy="180" r="60" fill="#FFFFFF" />
    <rect x="156" y="260" width="200" height="180" rx="90" fill="#FFFFFF" />

    <path d="M 215 125 L 215 85 L 235 105 L 256 65 L 277 105 L 297 85 L 297 125 Z" 
          fill="#FFD700" 
          stroke="#FFD700" 
          stroke-width="16" 
          stroke-linejoin="round" 
          stroke-linecap="round" />
          
    <circle cx="215" cy="85" r="8" fill="#FFFFFF" opacity="0.9" />
    <circle cx="256" cy="65" r="8" fill="#FFFFFF" opacity="0.9" />
    <circle cx="297" cy="85" r="8" fill="#FFFFFF" opacity="0.9" />

  </g>
</svg>