<svg class="app-icon-services-colored" xmlns="http://www.w3.org/2000/svg" viewBox="0 0 120 120">
  <defs>
    <linearGradient id="coloredBg" x1="0%" y1="0%" x2="100%" y2="100%">
      <stop offset="0%" stop-color="#6366f1" /> 
      <stop offset="100%" stop-color="#8b5cf6" />
    </linearGradient>

    <filter id="colorShadow" x="-20%" y="-20%" width="140%" height="140%">
      <feDropShadow dx="0" dy="6" stdDeviation="5" flood-color="#4c1d95" flood-opacity="0.4" />
    </filter>
  </defs>

  <rect x="8" y="8" width="104" height="104" rx="26" fill="url(#coloredBg)" filter="url(#colorShadow)" />

  <circle class="service-ring" cx="60" cy="60" r="38" fill="none" stroke="#ffffff" stroke-width="1.5" stroke-opacity="0.35" stroke-dasharray="4 6" />

  <g class="main-briefcase" transform="translate(60, 60)">
    <path d="M -12 -14 V -22 C -12 -26, -8 -29, 0 -29 C 8 -29, 12 -26, 12 -22 V -14" fill="none" stroke="#ffffff" stroke-width="4.5" stroke-linecap="round"/>
    
    <rect x="-26" y="-14" width="52" height="36" rx="6" fill="#ffffff" />
    
    <line x1="-26" y1="2" x2="26" y2="2" stroke="#6366f1" stroke-width="2" opacity="0.4"/>
    <rect x="-6" y="-6" width="12" height="10" rx="2" fill="#e0e7ff" />
    <circle cx="0" cy="-1" r="2" fill="#6366f1" />
  </g>

  <g class="service-badges" fill="#ffffff" stroke="#ffffff" stroke-linecap="round" stroke-linejoin="round">
    
    <g transform="translate(33, 33)">
      <line x1="-4" y1="4" x2="4" y2="-4" stroke-width="2.5"/>
      <circle cx="5" cy="-5" r="2.5" fill="none" stroke-width="1.5"/>
      <circle cx="-5" cy="5" r="2" stroke="none"/>
    </g>

    <g transform="translate(87, 33)">
      <path d="M-5,-5 L5,-5 L5,1 C5,5 0,7 0,7 C0,7 -5,5 -5,1 Z" fill="none" stroke-width="2"/>
    </g>

    <g transform="translate(33, 87)">
      <path d="M-2,-5 h4 v3 h3 v4 h-3 v3 h-4 v-3 h-3 v-4 h3 z" fill="#ffffff" stroke="none" />
    </g>

    <g transform="translate(87, 87)">
      <circle cx="0" cy="0" r="6" fill="none" stroke-width="2" />
      <circle cx="0" cy="0" r="1.5" fill="#ffffff" stroke="none"/>
      <path d="M-6,0 H-2 M6,0 H2 M0,6 V2" stroke-width="2"/>
    </g>
  </g>
</svg>