<svg xmlns="http://www.w3.org/2000/svg" viewBox="0 0 512 512" width="100%" height="100%">
  <defs>
    <linearGradient id="bgGrad" x1="0%" y1="0%" x2="0%" y2="100%">
      <stop offset="0%" stop-color="#FFDD00" />
      <stop offset="100%" stop-color="#FF9500" />
    </linearGradient>
    
    <linearGradient id="glassGrad" x1="0%" y1="0%" x2="100%" y2="100%">
      <stop offset="0%" stop-color="#E1F5FE" />
      <stop offset="100%" stop-color="#B3E5FC" />
    </linearGradient>

    <filter id="shadow" x="-20%" y="-20%" width="140%" height="140%">
      <feDropShadow dx="0" dy="12" stdDeviation="12" flood-color="#B35900" flood-opacity="0.4"/>
    </filter>
  </defs>

  <rect x="32" y="32" width="448" height="448" rx="100" fill="url(#bgGrad)" />

  <rect x="136" y="240" width="240" height="160" fill="#FFFFFF" rx="16" filter="url(#shadow)" />

  <rect x="166" y="270" width="180" height="90" rx="8" fill="url(#glassGrad)" />
  
  <path d="M 180 270 L 220 270 L 190 360 L 166 360 C 166 360 166 270 174 270 Z" fill="#FFFFFF" opacity="0.6" />
  <path d="M 240 270 L 260 270 L 230 360 L 210 360 Z" fill="#FFFFFF" opacity="0.6" />

  <rect x="236" y="370" width="40" height="30" rx="4" fill="#2A2A2D" opacity="0.1" />

  <path d="M 106 240 Q 116 160 146 160 L 366 160 Q 396 160 406 240 Z" fill="#2A2A2D" filter="url(#shadow)" />
  
  <path d="M 166 160 L 156 240 L 196 240 L 206 160 Z" fill="#FFFFFF" opacity="0.9" />
  <path d="M 246 160 L 236 240 L 276 240 L 286 160 Z" fill="#FFFFFF" opacity="0.9" />
  <path d="M 326 160 L 316 240 L 356 240 L 366 160 Z" fill="#FFFFFF" opacity="0.9" />
  
  <circle cx="126" cy="240" r="20" fill="#2A2A2D" />
  <circle cx="166" cy="240" r="20" fill="#2A2A2D" />
  <circle cx="206" cy="240" r="20" fill="#2A2A2D" />
  <circle cx="246" cy="240" r="20" fill="#2A2A2D" />
  <circle cx="286" cy="240" r="20" fill="#2A2A2D" />
  <circle cx="326" cy="240" r="20" fill="#2A2A2D" />
  <circle cx="366" cy="240" r="20" fill="#2A2A2D" />
  <circle cx="406" cy="240" r="20" fill="#2A2A2D" />

</svg>